<svg width="482" height="500" viewBox="0 0 482 500" fill="none" xmlns="http://www.w3.org/2000/svg">
<g clip-path="url(#clip0_478_1016)">
<path fill-rule="evenodd" clip-rule="evenodd" d="M155.024 481.577C141.917 463.602 146.036 438.886 164.011 425.779C167.756 423.157 171.876 421.285 175.995 419.787L176.744 404.807C167.007 400.688 159.143 390.202 158.394 379.717L143.789 375.972C141.168 379.717 138.172 382.712 134.427 385.334C116.451 398.441 91.3606 394.322 78.628 376.346C65.5209 358.371 69.6403 333.655 87.6158 320.547C105.591 307.44 130.307 311.56 143.415 329.535C146.785 334.403 149.406 340.021 150.53 345.638L175.995 352.379C182.736 349.758 190.226 349.383 196.966 352.004L211.571 341.519C207.827 326.165 213.818 309.313 226.925 299.951C244.901 286.843 269.992 290.963 282.724 308.938C295.831 326.539 291.712 351.63 273.737 364.737C260.629 374.099 243.028 374.848 229.547 366.609L214.942 377.095C215.316 384.21 212.695 391.326 208.201 396.943L206.703 423.157C211.946 426.153 216.44 429.898 219.81 434.766C232.543 452.742 228.798 477.458 210.822 490.565C193.221 503.672 168.131 499.553 155.024 481.577V481.577V481.577Z" fill="#0690BA"/>
<path fill-rule="evenodd" clip-rule="evenodd" d="M210.822 441.133C206.703 435.515 201.086 431.771 195.094 430.273L197.341 392.075C203.333 387.206 205.58 379.342 202.958 372.227L229.921 352.753C239.658 362.865 255.761 364.363 267.37 355.749C280.477 346.387 283.099 328.412 273.736 315.305C264.374 302.572 246.399 299.576 233.292 308.938C221.683 317.552 217.938 333.28 224.679 345.638L197.341 365.112C191.724 360.243 183.485 359.869 176.744 363.988L139.67 354.251C140.044 347.885 138.172 341.144 134.427 335.901C125.065 323.169 106.715 320.173 93.9821 329.535C80.875 338.897 78.2535 356.873 87.6157 369.98C96.978 383.087 114.953 385.708 128.06 376.346C132.929 372.601 136.299 368.107 138.172 362.865L170.752 371.478C168.131 376.721 168.88 383.461 172.625 388.33C176.37 393.573 182.361 395.82 188.353 395.445L186.481 429.149C180.863 429.149 175.246 431.022 170.378 434.766C157.645 444.129 154.649 462.104 164.011 475.211C173.374 488.318 191.349 490.94 204.456 481.577C217.563 472.215 220.185 454.24 210.822 441.133V441.133V441.133ZM240.407 319.049C247.897 313.807 258.008 315.305 263.251 322.794C268.494 330.284 266.996 340.395 259.506 345.638C253.514 350.132 245.275 349.758 239.658 345.264L244.526 341.519C247.897 343.391 252.765 343.391 256.136 340.77C261.004 337.399 262.127 330.659 258.382 325.79C255.012 320.922 248.271 319.798 243.403 323.543C240.033 326.165 238.535 330.284 239.284 334.404L234.415 338.148C232.168 331.408 234.415 323.543 240.407 319.049V319.049V319.049ZM121.32 366.984C113.455 372.601 102.595 370.729 96.978 362.865C91.3606 355 93.2331 344.14 101.097 338.523C108.962 332.906 119.822 334.778 125.439 342.268C127.312 344.889 128.435 347.885 128.809 350.881L122.818 349.383C122.443 348.26 122.069 346.762 120.945 345.638C117.2 340.395 109.711 339.272 104.468 343.017C99.2249 346.762 98.1014 354.251 101.846 359.494C105.591 364.737 113.081 365.861 118.324 362.116C119.822 360.992 120.945 359.494 121.694 357.996L127.312 359.494C125.814 362.49 123.941 365.112 121.32 366.984V366.984V366.984ZM173.374 468.47C167.756 460.606 169.629 449.746 177.118 444.129C179.74 442.256 182.736 441.133 185.732 440.758L185.357 446.75C183.485 447.125 181.987 447.499 180.489 448.622C175.246 452.367 174.123 459.857 177.867 465.1C181.612 470.343 189.102 471.466 194.345 467.721C199.588 463.977 200.711 456.487 196.966 451.244C196.217 450.12 195.094 449.371 193.97 448.622L194.345 442.256C196.966 443.38 199.588 445.252 201.46 447.874C207.078 455.738 205.205 466.598 197.341 472.215C189.851 478.207 178.991 476.335 173.374 468.47V468.47V468.47Z" fill="#C3E8F2"/>
<path fill-rule="evenodd" clip-rule="evenodd" d="M449.371 420.91C428.4 427.651 405.931 416.042 399.19 395.071C397.692 390.577 397.318 386.457 397.318 381.964L383.087 376.721C376.346 384.959 363.614 388.704 353.502 386.083L345.264 398.816C347.885 402.186 350.132 406.305 351.256 410.799C357.996 431.771 346.387 454.24 325.416 461.355C304.444 468.096 281.975 456.487 275.234 435.515C268.494 414.544 280.103 392.075 301.074 385.334C306.691 383.461 312.683 383.087 318.675 383.836L332.906 361.741C332.531 354.626 334.404 347.511 339.272 341.893L333.655 324.667C317.926 323.543 304.07 312.309 298.827 297.329C292.086 276.358 303.695 253.888 324.667 247.148C345.638 240.407 368.107 252.016 374.848 272.987C379.717 288.341 374.848 305.193 362.865 315.679L368.482 332.906C375.597 334.778 381.589 339.272 385.334 345.638L403.309 354.251C407.803 350.132 419.412 347.885 425.03 346.013C446.001 339.272 468.47 350.881 475.586 371.852C481.952 391.7 470.343 414.17 449.371 420.91V420.91V420.91Z" fill="#0690BA"/>
<path fill-rule="evenodd" clip-rule="evenodd" d="M428.026 355.375C421.659 357.622 416.042 361.741 412.672 366.984L376.721 353.128C374.099 346.013 366.984 341.519 359.494 341.893L349.383 310.436C362.116 304.07 368.482 289.465 363.988 275.609C359.12 260.255 342.642 252.016 327.663 256.885C312.683 261.753 304.07 278.23 308.938 293.21C313.432 307.066 327.288 315.305 341.144 312.683L351.255 344.515C344.889 348.634 341.893 356.124 344.14 363.614L323.169 395.82C317.177 393.573 310.436 393.198 304.07 395.071C288.716 399.939 280.477 416.417 285.345 431.396C290.214 446.75 306.691 454.989 321.671 450.121C337.025 445.252 345.264 428.775 340.395 413.795C338.523 408.178 335.152 403.31 330.659 399.939L349.009 371.478C353.502 375.597 359.869 377.095 365.86 375.223C371.852 373.35 375.972 368.482 377.47 362.49L408.927 374.848C407.429 380.091 407.429 386.083 409.301 391.7C414.17 407.054 430.647 415.293 445.627 410.425C460.981 405.556 469.219 389.079 464.351 374.099C459.483 358.745 443.38 350.507 428.026 355.375V355.375V355.375ZM321.296 289.465C318.675 280.852 323.169 271.49 331.782 268.868C340.395 265.872 349.757 270.741 352.379 279.354C354.626 286.469 351.63 294.333 345.638 298.078L343.766 292.461C346.762 289.84 348.26 285.346 346.762 281.226C344.889 275.609 338.897 272.613 333.28 274.485C327.663 276.358 324.667 282.35 326.539 287.967C328.037 292.086 331.408 294.708 335.527 295.457L337.399 301.449C330.284 301.074 323.543 296.58 321.296 289.465V289.465V289.465ZM329.91 417.54C332.906 426.902 327.663 436.639 318.675 439.635C309.313 442.631 299.576 437.388 296.58 428.4C293.584 419.413 298.827 409.301 307.815 406.305C310.811 405.182 314.181 405.182 317.177 405.931L313.807 411.174C312.683 411.174 311.185 411.174 309.687 411.548C303.695 413.421 300.325 420.162 302.197 426.528C304.07 432.52 310.811 435.89 317.177 434.018C323.169 432.145 326.539 425.404 324.667 419.413C323.918 417.54 323.169 416.042 321.671 414.919L325.041 410.05C326.914 411.923 328.786 414.544 329.91 417.54V417.54V417.54ZM442.256 399.565C432.894 402.561 423.157 397.318 420.161 388.33C419.038 385.334 419.038 381.964 419.787 378.968L425.404 381.215C425.03 383.087 425.03 384.96 425.779 386.458C427.651 392.824 434.392 395.82 440.758 393.947C447.124 392.075 450.495 385.334 448.248 378.968C446.376 372.976 439.635 369.606 433.268 371.478C432.145 371.852 430.647 372.601 429.898 373.35L423.906 371.104C425.779 368.857 428.4 366.984 431.77 365.861C441.133 362.865 450.869 368.108 453.865 377.095C456.487 386.832 451.618 396.569 442.256 399.565V399.565V399.565Z" fill="#C3E8F2"/>
<path fill-rule="evenodd" clip-rule="evenodd" d="M479.705 125.439C479.705 147.534 461.73 165.509 439.635 165.509C435.141 165.509 430.647 164.76 419.787 162.513L410.425 174.122C422.408 183.859 422.408 196.966 416.791 205.954L426.153 217.563C430.273 216.065 434.766 215.316 439.26 215.316C461.355 215.316 479.331 233.292 479.331 255.386C479.331 277.481 461.355 295.457 439.26 295.457C417.165 295.457 399.19 277.481 399.19 255.386C399.19 249.395 400.688 243.403 402.935 238.16L386.457 217.938C379.342 216.065 373.35 211.946 369.231 205.954H351.256C346.013 220.559 331.408 230.296 315.305 230.296C293.21 230.296 275.234 212.32 275.234 190.225C275.234 168.131 293.21 150.155 315.305 150.53C331.408 150.53 346.013 160.641 352.005 175.246H369.98C374.099 169.254 380.091 164.76 387.206 163.262L403.684 143.04C401.062 137.797 399.939 131.805 399.939 125.813C399.939 103.719 417.914 85.7432 440.009 85.7432C462.104 85.7432 479.705 103.719 479.705 125.439V125.439V125.439Z" fill="#0690BA"/>
<path fill-rule="evenodd" clip-rule="evenodd" d="M410.799 125.439C410.799 132.18 413.046 138.546 417.165 143.415L392.824 172.999C385.334 173.374 378.593 178.616 376.721 185.732H343.391C341.144 171.876 329.161 161.015 314.93 161.015C298.827 161.015 286.094 173.748 286.094 189.851C286.094 205.58 298.827 218.687 314.93 218.687C329.535 218.687 341.519 207.827 343.766 193.97H377.095C378.968 201.086 385.334 206.329 393.198 206.703L417.54 236.288C413.421 241.156 411.174 247.522 411.174 254.263C411.174 270.366 424.281 283.099 440.009 283.099C456.112 283.099 468.845 269.992 468.845 254.263C468.845 238.16 456.112 225.427 440.009 225.427C434.017 225.427 428.4 227.3 423.906 230.296L402.56 204.082C407.803 201.086 411.174 195.468 411.174 189.477C411.174 183.11 407.803 177.493 402.56 174.497L423.906 148.283C428.4 151.279 434.017 153.151 440.009 153.151C456.112 153.151 468.845 140.044 468.845 124.316C468.845 108.213 455.738 95.48 440.009 95.48C423.906 96.6034 410.799 109.711 410.799 125.439V125.439V125.439ZM315.305 206.703C306.317 206.703 298.827 199.213 298.827 190.226C298.827 181.238 306.317 173.748 315.305 173.748C322.794 173.748 329.161 178.991 331.033 185.732H325.041C323.543 181.987 319.798 179.365 315.305 179.365C309.313 179.365 304.819 184.234 304.819 189.851C304.819 195.843 309.687 200.711 315.305 200.711C319.798 200.711 323.543 198.09 325.041 194.345H331.033C329.161 201.835 322.794 206.703 315.305 206.703V206.703V206.703ZM439.635 238.16C449.371 238.16 457.236 246.024 457.236 255.761C457.236 265.498 449.371 273.362 439.635 273.362C429.898 273.362 422.034 265.498 422.034 255.761C422.034 252.391 423.157 249.395 424.655 246.773L428.775 251.642C428.4 252.765 428.026 254.263 428.026 255.761C428.026 262.127 433.268 267.37 439.635 267.37C446.001 267.37 451.244 262.127 451.244 255.761C451.244 249.395 446.001 244.152 439.635 244.152C437.762 244.152 435.89 244.526 434.392 245.275L430.647 240.781C433.268 238.909 436.639 238.16 439.635 238.16V238.16V238.16ZM457.236 125.439C457.236 135.176 449.371 143.04 439.635 143.04C436.264 143.04 433.268 142.291 430.647 140.419L434.392 135.925C435.89 136.674 437.762 137.048 439.635 137.423C446.001 137.423 451.244 132.18 451.244 125.814C451.244 119.447 446.001 114.204 439.635 114.204C433.268 114.204 428.026 119.447 428.026 125.814C428.026 127.311 428.4 128.435 428.775 129.558L424.655 134.427C423.157 131.805 422.034 128.809 422.034 125.439C422.034 115.702 429.898 107.838 439.635 107.838C449.371 108.213 457.236 115.702 457.236 125.439V125.439V125.439Z" fill="#C3E8F2"/>
<path fill-rule="evenodd" clip-rule="evenodd" d="M208.201 3.73022C229.172 10.471 240.781 33.3148 233.666 54.2862C232.168 58.78 230.296 62.5249 227.3 66.2698L235.539 79.0024C246.024 76.381 258.382 80.5003 265.123 88.7391L279.354 83.4963C279.354 79.0024 280.103 74.5085 281.226 70.3892C287.967 49.4178 310.811 37.8087 331.782 44.9239C352.753 51.6647 364.363 74.134 357.247 95.4799C350.507 116.451 327.663 128.06 306.691 120.945C301.074 119.073 295.831 116.077 291.712 111.957L267.37 121.32C263.625 127.311 257.633 132.18 250.518 134.052L244.901 151.279C256.884 161.764 261.753 178.616 256.884 193.97C250.144 214.942 227.3 226.551 206.329 219.436C185.732 211.571 174.123 189.102 180.863 168.131C185.732 152.777 199.962 141.916 215.691 140.793L221.308 123.567C216.814 117.949 214.567 110.834 215.316 103.344L201.086 81.2493C195.094 81.9983 189.102 81.6238 183.485 79.7514C162.513 73.0106 150.904 50.5413 157.645 29.5699C164.76 8.59857 187.23 -3.01058 208.201 3.73022V3.73022V3.73022Z" fill="#0690BA"/>
<path fill-rule="evenodd" clip-rule="evenodd" d="M186.855 69.2656C193.221 71.5125 199.962 71.1381 205.954 68.8911L226.551 101.097C224.304 108.587 227.674 116.077 233.666 120.196L223.18 151.653C209.324 149.406 195.468 157.27 190.974 171.126C186.106 186.48 194.345 202.584 209.324 207.826C224.304 212.695 240.781 204.456 246.024 189.476C250.518 175.62 244.152 161.015 231.419 154.649L241.905 123.192C249.395 123.566 256.51 119.073 259.131 111.957L295.082 98.1012C298.453 103.344 303.695 107.838 310.436 109.71C325.79 114.579 341.893 106.34 347.136 90.9859C352.004 75.6319 343.766 59.5289 328.412 54.2861C313.058 49.4177 296.955 57.6565 291.712 72.636C289.839 78.2533 289.839 84.2452 291.337 89.488L259.88 101.846C258.757 96.2288 254.637 90.9859 248.646 89.1135C242.654 87.2411 236.288 88.739 231.794 92.4839L213.444 64.0228C217.938 60.6524 221.308 55.784 223.18 50.1667C228.049 34.8127 219.81 18.7097 204.456 13.8413C189.102 8.97298 172.999 17.2117 168.131 32.5658C163.262 47.9198 171.501 64.3973 186.855 69.2656V69.2656V69.2656ZM234.415 185.732C231.419 194.345 222.431 199.213 213.818 196.217C205.205 193.221 200.337 184.234 203.333 175.62C205.579 168.505 212.695 164.011 219.81 164.386L217.938 170.003C213.818 170.377 210.448 173.373 208.95 177.118C207.077 182.736 210.073 188.727 215.691 190.6C221.308 192.472 227.3 189.476 229.172 183.859C230.67 179.74 229.172 175.246 226.176 172.624L228.049 166.633C234.041 170.752 237.037 178.242 234.415 185.732V185.732V185.732ZM302.572 76.7554C305.568 67.3932 315.305 62.5248 324.667 65.5207C333.655 68.5166 338.897 78.6278 335.901 87.6155C332.906 96.6033 323.169 101.846 313.807 98.8502C310.811 97.7267 308.189 95.8543 306.317 93.6074L312.309 91.3604C313.432 92.1094 314.556 92.8584 316.054 93.2329C322.045 95.1053 328.786 91.7349 330.659 85.7431C332.531 79.7513 329.161 73.0105 323.169 71.1381C317.177 69.2656 310.436 72.636 308.189 78.6278C307.815 80.5003 307.44 82.3727 307.815 83.8707L302.197 86.1176C301.823 83.1217 301.823 79.7513 302.572 76.7554V76.7554V76.7554ZM201.086 25.076C210.448 28.0719 215.316 37.8086 212.32 47.1708C211.197 50.1667 209.699 52.7881 207.077 55.0351L204.082 50.1667C205.205 49.0432 206.328 47.5453 207.077 45.6728C208.95 39.3065 205.579 32.9402 199.588 30.6933C193.596 28.8209 186.855 32.1913 184.608 38.1831C182.736 44.1749 186.106 50.9157 192.098 52.7881C193.221 53.1626 194.719 53.5371 195.843 53.1626L199.213 58.4054C196.217 59.1544 193.221 59.1544 189.851 58.031C180.489 55.0351 175.62 45.2984 178.616 35.9361C181.987 27.3229 192.098 22.0801 201.086 25.076V25.076V25.076Z" fill="#C3E8F2"/>
<path fill-rule="evenodd" clip-rule="evenodd" d="M65.1464 214.567C68.8913 217.189 71.8872 220.559 74.5086 224.304L89.1137 220.559C89.8626 210.073 97.7269 199.213 107.464 195.468L106.715 180.489C102.595 179.365 98.4759 177.118 94.731 174.497C77.13 161.015 73.0107 135.925 86.1178 117.949C99.2248 99.9738 123.941 96.2289 141.917 109.336C159.517 122.443 163.637 147.159 150.53 165.135C147.159 170.003 142.666 173.748 137.423 176.744L138.921 202.958C143.414 208.575 146.036 215.691 145.661 222.806L160.266 233.292C173.748 225.053 191.349 225.802 204.456 235.164C222.432 248.271 226.176 273.362 213.069 290.963C200.337 308.938 175.246 312.683 157.271 299.951C144.163 290.588 138.172 273.736 141.917 258.382L127.311 247.897C120.571 250.518 113.081 250.518 106.34 247.522L80.8749 254.263C79.7514 260.255 77.5045 265.872 73.7596 270.366C61.027 287.967 36.3108 292.086 18.3353 278.979C0.359898 266.247 -3.38499 241.156 9.34762 223.18C22.4547 205.205 47.171 201.46 65.1464 214.567V214.567Z" fill="#0690BA"/>
<path fill-rule="evenodd" clip-rule="evenodd" d="M65.1463 264C69.2657 258.382 71.1381 252.016 70.7636 245.65L107.838 235.913C114.204 240.032 122.443 239.658 128.435 234.79L155.398 254.263C149.032 266.621 152.402 282.35 164.011 290.963C177.118 300.325 195.094 297.704 204.456 284.597C213.818 271.864 211.197 253.514 198.09 244.152C186.481 235.539 170.378 237.037 160.266 247.148L133.303 227.674C135.925 220.934 134.052 212.695 128.06 207.826L125.813 169.629C132.18 168.131 137.797 164.386 141.542 158.769C150.904 145.661 147.908 127.686 135.176 118.324C122.443 108.962 104.093 111.583 94.7309 124.69C85.3687 137.423 87.9901 155.773 101.097 165.135C105.966 168.505 111.583 170.378 117.2 170.752L119.073 204.456C113.081 203.707 107.089 206.329 103.344 211.571C99.5992 216.814 99.2247 223.181 101.472 228.423L68.8912 237.037C67.0187 231.794 63.6483 226.925 58.78 223.555C45.6729 214.193 27.6974 217.189 18.3352 229.921C8.97302 242.654 11.5944 261.004 24.7015 270.366C37.8086 279.728 55.7841 276.732 65.1463 264V264V264ZM190.6 254.263C198.09 259.506 199.588 269.992 194.345 277.107C189.102 284.597 178.616 286.095 171.501 280.852C165.509 276.358 163.262 268.494 165.884 261.753L170.752 265.498C170.003 269.617 171.501 273.736 174.871 276.358C179.74 279.728 186.481 278.605 189.851 274.111C193.221 269.243 192.472 262.502 187.604 259.131C184.234 256.51 179.365 256.51 175.995 258.382L170.378 254.638C176.369 250.144 184.234 249.769 190.6 254.263V254.263V254.263ZM107.838 155.773C99.9737 150.155 98.4758 138.921 104.093 131.431C109.71 123.567 120.945 122.069 128.435 127.686C136.299 133.303 138.172 144.538 132.18 152.028C130.307 154.649 127.686 156.522 125.064 157.645L124.69 151.279C125.813 150.53 126.937 149.781 127.686 148.657C131.431 143.414 130.307 135.925 125.064 132.18C119.822 128.435 112.332 129.558 108.587 134.801C104.842 140.044 105.966 147.534 111.208 151.279C112.706 152.402 114.579 153.151 116.077 153.151L116.451 159.143C113.83 158.769 110.834 157.645 107.838 155.773V155.773V155.773ZM27.6974 236.662C33.3148 228.798 44.5494 226.925 52.0392 232.917C54.6606 234.79 56.533 237.411 58.031 240.032L52.0392 241.53C51.2902 240.032 50.1667 238.535 48.6688 237.411C43.426 233.666 35.9362 234.79 32.1913 240.032C28.4464 245.275 29.5699 252.765 34.8127 256.51C40.0556 260.255 47.5453 259.131 51.2902 253.889C52.0392 252.765 52.7882 251.642 53.1627 250.144L59.529 248.646C59.1545 251.642 58.4055 254.638 56.1586 257.259C50.5412 265.123 39.6811 266.621 31.8168 261.004C23.5781 255.387 22.0801 244.152 27.6974 236.662V236.662V236.662Z" fill="#C3E8F2"/>
</g>
<defs>
<clipPath id="clip0_478_1016">
<rect width="481.203" height="500" fill="white"/>
</clipPath>
</defs>
</svg>
